<?xml version="1.0" encoding="UTF-8" standalone="no"?>
<svg width="460px" height="460px" viewBox="0 0 460 460" version="1.1" xmlns="http://www.w3.org/2000/svg" xmlns:xlink="http://www.w3.org/1999/xlink" xmlns:sketch="http://www.bohemiancoding.com/sketch/ns">
    <!-- Generator: Sketch 3.2.2 (9983) - http://www.bohemiancoding.com/sketch -->
    <title>Thing</title>
    <desc>Created with Sketch.</desc>
    <defs></defs>
    <g id="Page-1" stroke="none" stroke-width="1" fill="none" fill-rule="evenodd" sketch:type="MSPage">
        <g id="Artboard" sketch:type="MSArtboardGroup">
            <g id="Thing" sketch:type="MSLayerGroup" transform="translate(-185.000000, -224.000000)">
                <g id="Page-2" sketch:type="MSShapeGroup">
                    <g id="Mockup-4">
                        <g id="Group-2" transform="translate(396.568768, 466.495413) rotate(141.000000) translate(-396.568768, -466.495413) translate(105.830946, 233.247706)" stroke="#333333" stroke-width="6">
                            <path d="M363.868195,1.21471134 C378.375358,1.21471134 378.375358,15.4705111 392.882521,15.4705111 C407.389685,15.4705111 423.105778,0.501921345 436.404011,1.21471134 M436.404011,1.21471134 C450.911175,1.21471134 450.911175,15.4705111 465.418338,15.4705111 C479.925501,15.4705111 495.641595,0.501921345 508.939828,1.21471134 M508.939828,1.21471134 C523.446991,1.21471134 523.446991,15.4705111 537.954155,15.4705111 C552.461318,15.4705111 568.177411,0.501921345 581.475645,1.21471134 M291.332378,1.21471134 C305.839542,1.21471134 305.839542,15.4705111 320.346705,15.4705111 C334.853868,15.4705111 350.569962,0.501921345 363.868195,1.21471134 M218.796562,1.21471134 C233.303725,1.21471134 233.303725,15.4705111 247.810888,15.4705111 C262.318052,15.4705111 278.034145,0.501921345 291.332378,1.21471134 M146.260745,1.21471134 C160.767908,1.21471134 160.767908,15.4705111 175.275072,15.4705111 C189.782235,15.4705111 205.498328,0.501921345 218.796562,1.21471134 M73.7249284,1.21471134 C88.2320917,1.21471134 88.2320917,15.4705111 102.739255,15.4705111 C117.246418,15.4705111 132.962512,0.501921345 146.260745,1.21471134 M1.18911175,1.21471134 C15.6962751,1.21471134 15.6962751,15.4705111 30.2034384,15.4705111 C44.7106017,15.4705111 60.4266953,0.501921345 73.7249284,1.21471134" id="Path-412"></path>
                            <path d="M363.868195,15.4951832 C378.375358,15.4951832 378.375358,29.750983 392.882521,29.750983 C407.389685,29.750983 423.105778,14.7823932 436.404011,15.4951832 M436.404011,15.4951832 C450.911175,15.4951832 450.911175,29.750983 465.418338,29.750983 C479.925501,29.750983 495.641595,14.7823932 508.939828,15.4951832 M508.939828,15.4951832 C523.446991,15.4951832 523.446991,29.750983 537.954155,29.750983 C552.461318,29.750983 568.177411,14.7823932 581.475645,15.4951832 M291.332378,15.4951832 C305.839542,15.4951832 305.839542,29.750983 320.346705,29.750983 C334.853868,29.750983 350.569962,14.7823932 363.868195,15.4951832 M218.796562,15.4951832 C233.303725,15.4951832 233.303725,29.750983 247.810888,29.750983 C262.318052,29.750983 278.034145,14.7823932 291.332378,15.4951832 M146.260745,15.4951832 C160.767908,15.4951832 160.767908,29.750983 175.275072,29.750983 C189.782235,29.750983 205.498328,14.7823932 218.796562,15.4951832 M73.7249284,15.4951832 C88.2320917,15.4951832 88.2320917,29.750983 102.739255,29.750983 C117.246418,29.750983 132.962512,14.7823932 146.260745,15.4951832 M1.18911175,15.4951832 C15.6962751,15.4951832 15.6962751,29.750983 30.2034384,29.750983 C44.7106017,29.750983 60.4266953,14.7823932 73.7249284,15.4951832" id="Path-413"></path>
                            <path d="M363.868195,29.775655 C378.375358,29.775655 378.375358,44.0314548 392.882521,44.0314548 C407.389685,44.0314548 423.105778,29.062865 436.404011,29.775655 M436.404011,29.775655 C450.911175,29.775655 450.911175,44.0314548 465.418338,44.0314548 C479.925501,44.0314548 495.641595,29.062865 508.939828,29.775655 M508.939828,29.775655 C523.446991,29.775655 523.446991,44.0314548 537.954155,44.0314548 C552.461318,44.0314548 568.177411,29.062865 581.475645,29.775655 M291.332378,29.775655 C305.839542,29.775655 305.839542,44.0314548 320.346705,44.0314548 C334.853868,44.0314548 350.569962,29.062865 363.868195,29.775655 M218.796562,29.775655 C233.303725,29.775655 233.303725,44.0314548 247.810888,44.0314548 C262.318052,44.0314548 278.034145,29.062865 291.332378,29.775655 M146.260745,29.775655 C160.767908,29.775655 160.767908,44.0314548 175.275072,44.0314548 C189.782235,44.0314548 205.498328,29.062865 218.796562,29.775655 M73.7249284,29.775655 C88.2320917,29.775655 88.2320917,44.0314548 102.739255,44.0314548 C117.246418,44.0314548 132.962512,29.062865 146.260745,29.775655 M1.18911175,29.775655 C15.6962751,29.775655 15.6962751,44.0314548 30.2034384,44.0314548 C44.7106017,44.0314548 60.4266953,29.062865 73.7249284,29.775655" id="Path-414"></path>
                            <path d="M363.868195,44.0561268 C378.375358,44.0561268 378.375358,58.3119266 392.882521,58.3119266 C407.389685,58.3119266 423.105778,43.3433368 436.404011,44.0561268 M436.404011,44.0561268 C450.911175,44.0561268 450.911175,58.3119266 465.418338,58.3119266 C479.925501,58.3119266 495.641595,43.3433368 508.939828,44.0561268 M508.939828,44.0561268 C523.446991,44.0561268 523.446991,58.3119266 537.954155,58.3119266 C552.461318,58.3119266 568.177411,43.3433368 581.475645,44.0561268 M291.332378,44.0561268 C305.839542,44.0561268 305.839542,58.3119266 320.346705,58.3119266 C334.853868,58.3119266 350.569962,43.3433368 363.868195,44.0561268 M218.796562,44.0561268 C233.303725,44.0561268 233.303725,58.3119266 247.810888,58.3119266 C262.318052,58.3119266 278.034145,43.3433368 291.332378,44.0561268 M146.260745,44.0561268 C160.767908,44.0561268 160.767908,58.3119266 175.275072,58.3119266 C189.782235,58.3119266 205.498328,43.3433368 218.796562,44.0561268 M73.7249284,44.0561268 C88.2320917,44.0561268 88.2320917,58.3119266 102.739255,58.3119266 C117.246418,58.3119266 132.962512,43.3433368 146.260745,44.0561268 M1.18911175,44.0561268 C15.6962751,44.0561268 15.6962751,58.3119266 30.2034384,58.3119266 C44.7106017,58.3119266 60.4266953,43.3433368 73.7249284,44.0561268" id="Path-412"></path>
                            <path d="M363.868195,59.5266379 C378.375358,59.5266379 378.375358,73.7824377 392.882521,73.7824377 C407.389685,73.7824377 423.105778,58.813848 436.404011,59.5266379 M436.404011,59.5266379 C450.911175,59.5266379 450.911175,73.7824377 465.418338,73.7824377 C479.925501,73.7824377 495.641595,58.813848 508.939828,59.5266379 M508.939828,59.5266379 C523.446991,59.5266379 523.446991,73.7824377 537.954155,73.7824377 C552.461318,73.7824377 568.177411,58.813848 581.475645,59.5266379 M291.332378,59.5266379 C305.839542,59.5266379 305.839542,73.7824377 320.346705,73.7824377 C334.853868,73.7824377 350.569962,58.813848 363.868195,59.5266379 M218.796562,59.5266379 C233.303725,59.5266379 233.303725,73.7824377 247.810888,73.7824377 C262.318052,73.7824377 278.034145,58.813848 291.332378,59.5266379 M146.260745,59.5266379 C160.767908,59.5266379 160.767908,73.7824377 175.275072,73.7824377 C189.782235,73.7824377 205.498328,58.813848 218.796562,59.5266379 M73.7249284,59.5266379 C88.2320917,59.5266379 88.2320917,73.7824377 102.739255,73.7824377 C117.246418,73.7824377 132.962512,58.813848 146.260745,59.5266379 M1.18911175,59.5266379 C15.6962751,59.5266379 15.6962751,73.7824377 30.2034384,73.7824377 C44.7106017,73.7824377 60.4266953,58.813848 73.7249284,59.5266379" id="Path-413"></path>
                            <path d="M363.868195,73.8071098 C378.375358,73.8071098 378.375358,88.0629096 392.882521,88.0629096 C407.389685,88.0629096 423.105778,73.0943198 436.404011,73.8071098 M436.404011,73.8071098 C450.911175,73.8071098 450.911175,88.0629096 465.418338,88.0629096 C479.925501,88.0629096 495.641595,73.0943198 508.939828,73.8071098 M508.939828,73.8071098 C523.446991,73.8071098 523.446991,88.0629096 537.954155,88.0629096 C552.461318,88.0629096 568.177411,73.0943198 581.475645,73.8071098 M291.332378,73.8071098 C305.839542,73.8071098 305.839542,88.0629096 320.346705,88.0629096 C334.853868,88.0629096 350.569962,73.0943198 363.868195,73.8071098 M218.796562,73.8071098 C233.303725,73.8071098 233.303725,88.0629096 247.810888,88.0629096 C262.318052,88.0629096 278.034145,73.0943198 291.332378,73.8071098 M146.260745,73.8071098 C160.767908,73.8071098 160.767908,88.0629096 175.275072,88.0629096 C189.782235,88.0629096 205.498328,73.0943198 218.796562,73.8071098 M73.7249284,73.8071098 C88.2320917,73.8071098 88.2320917,88.0629096 102.739255,88.0629096 C117.246418,88.0629096 132.962512,73.0943198 146.260745,73.8071098 M1.18911175,73.8071098 C15.6962751,73.8071098 15.6962751,88.0629096 30.2034384,88.0629096 C44.7106017,88.0629096 60.4266953,73.0943198 73.7249284,73.8071098" id="Path-414"></path>
                            <path d="M363.868195,88.0875816 C378.375358,88.0875816 378.375358,102.343381 392.882521,102.343381 C407.389685,102.343381 423.105778,87.3747916 436.404011,88.0875816 M436.404011,88.0875816 C450.911175,88.0875816 450.911175,102.343381 465.418338,102.343381 C479.925501,102.343381 495.641595,87.3747916 508.939828,88.0875816 M508.939828,88.0875816 C523.446991,88.0875816 523.446991,102.343381 537.954155,102.343381 C552.461318,102.343381 568.177411,87.3747916 581.475645,88.0875816 M291.332378,88.0875816 C305.839542,88.0875816 305.839542,102.343381 320.346705,102.343381 C334.853868,102.343381 350.569962,87.3747916 363.868195,88.0875816 M218.796562,88.0875816 C233.303725,88.0875816 233.303725,102.343381 247.810888,102.343381 C262.318052,102.343381 278.034145,87.3747916 291.332378,88.0875816 M146.260745,88.0875816 C160.767908,88.0875816 160.767908,102.343381 175.275072,102.343381 C189.782235,102.343381 205.498328,87.3747916 218.796562,88.0875816 M73.7249284,88.0875816 C88.2320917,88.0875816 88.2320917,102.343381 102.739255,102.343381 C117.246418,102.343381 132.962512,87.3747916 146.260745,88.0875816 M1.18911175,88.0875816 C15.6962751,88.0875816 15.6962751,102.343381 30.2034384,102.343381 C44.7106017,102.343381 60.4266953,87.3747916 73.7249284,88.0875816" id="Path-412"></path>
                            <path d="M363.868195,102.368053 C378.375358,102.368053 378.375358,116.623853 392.882521,116.623853 C407.389685,116.623853 423.105778,101.655263 436.404011,102.368053 M436.404011,102.368053 C450.911175,102.368053 450.911175,116.623853 465.418338,116.623853 C479.925501,116.623853 495.641595,101.655263 508.939828,102.368053 M508.939828,102.368053 C523.446991,102.368053 523.446991,116.623853 537.954155,116.623853 C552.461318,116.623853 568.177411,101.655263 581.475645,102.368053 M291.332378,102.368053 C305.839542,102.368053 305.839542,116.623853 320.346705,116.623853 C334.853868,116.623853 350.569962,101.655263 363.868195,102.368053 M218.796562,102.368053 C233.303725,102.368053 233.303725,116.623853 247.810888,116.623853 C262.318052,116.623853 278.034145,101.655263 291.332378,102.368053 M146.260745,102.368053 C160.767908,102.368053 160.767908,116.623853 175.275072,116.623853 C189.782235,116.623853 205.498328,101.655263 218.796562,102.368053 M73.7249284,102.368053 C88.2320917,102.368053 88.2320917,116.623853 102.739255,116.623853 C117.246418,116.623853 132.962512,101.655263 146.260745,102.368053 M1.18911175,102.368053 C15.6962751,102.368053 15.6962751,116.623853 30.2034384,116.623853 C44.7106017,116.623853 60.4266953,101.655263 73.7249284,102.368053" id="Path-413"></path>
                            <path d="M363.868195,116.648525 C378.375358,116.648525 378.375358,130.904325 392.882521,130.904325 C407.389685,130.904325 423.105778,115.935735 436.404011,116.648525 M436.404011,116.648525 C450.911175,116.648525 450.911175,130.904325 465.418338,130.904325 C479.925501,130.904325 495.641595,115.935735 508.939828,116.648525 M508.939828,116.648525 C523.446991,116.648525 523.446991,130.904325 537.954155,130.904325 C552.461318,130.904325 568.177411,115.935735 581.475645,116.648525 M291.332378,116.648525 C305.839542,116.648525 305.839542,130.904325 320.346705,130.904325 C334.853868,130.904325 350.569962,115.935735 363.868195,116.648525 M218.796562,116.648525 C233.303725,116.648525 233.303725,130.904325 247.810888,130.904325 C262.318052,130.904325 278.034145,115.935735 291.332378,116.648525 M146.260745,116.648525 C160.767908,116.648525 160.767908,130.904325 175.275072,130.904325 C189.782235,130.904325 205.498328,115.935735 218.796562,116.648525 M73.7249284,116.648525 C88.2320917,116.648525 88.2320917,130.904325 102.739255,130.904325 C117.246418,130.904325 132.962512,115.935735 146.260745,116.648525 M1.18911175,116.648525 C15.6962751,116.648525 15.6962751,130.904325 30.2034384,130.904325 C44.7106017,130.904325 60.4266953,115.935735 73.7249284,116.648525" id="Path-414"></path>
                            <path d="M363.868195,132.119036 C378.375358,132.119036 378.375358,146.374836 392.882521,146.374836 C407.389685,146.374836 423.105778,131.406246 436.404011,132.119036 M436.404011,132.119036 C450.911175,132.119036 450.911175,146.374836 465.418338,146.374836 C479.925501,146.374836 495.641595,131.406246 508.939828,132.119036 M508.939828,132.119036 C523.446991,132.119036 523.446991,146.374836 537.954155,146.374836 C552.461318,146.374836 568.177411,131.406246 581.475645,132.119036 M291.332378,132.119036 C305.839542,132.119036 305.839542,146.374836 320.346705,146.374836 C334.853868,146.374836 350.569962,131.406246 363.868195,132.119036 M218.796562,132.119036 C233.303725,132.119036 233.303725,146.374836 247.810888,146.374836 C262.318052,146.374836 278.034145,131.406246 291.332378,132.119036 M146.260745,132.119036 C160.767908,132.119036 160.767908,146.374836 175.275072,146.374836 C189.782235,146.374836 205.498328,131.406246 218.796562,132.119036 M73.7249284,132.119036 C88.2320917,132.119036 88.2320917,146.374836 102.739255,146.374836 C117.246418,146.374836 132.962512,131.406246 146.260745,132.119036 M1.18911175,132.119036 C15.6962751,132.119036 15.6962751,146.374836 30.2034384,146.374836 C44.7106017,146.374836 60.4266953,131.406246 73.7249284,132.119036" id="Path-412"></path>
                            <path d="M363.868195,146.399508 C378.375358,146.399508 378.375358,160.655308 392.882521,160.655308 C407.389685,160.655308 423.105778,145.686718 436.404011,146.399508 M436.404011,146.399508 C450.911175,146.399508 450.911175,160.655308 465.418338,160.655308 C479.925501,160.655308 495.641595,145.686718 508.939828,146.399508 M508.939828,146.399508 C523.446991,146.399508 523.446991,160.655308 537.954155,160.655308 C552.461318,160.655308 568.177411,145.686718 581.475645,146.399508 M291.332378,146.399508 C305.839542,146.399508 305.839542,160.655308 320.346705,160.655308 C334.853868,160.655308 350.569962,145.686718 363.868195,146.399508 M218.796562,146.399508 C233.303725,146.399508 233.303725,160.655308 247.810888,160.655308 C262.318052,160.655308 278.034145,145.686718 291.332378,146.399508 M146.260745,146.399508 C160.767908,146.399508 160.767908,160.655308 175.275072,160.655308 C189.782235,160.655308 205.498328,145.686718 218.796562,146.399508 M73.7249284,146.399508 C88.2320917,146.399508 88.2320917,160.655308 102.739255,160.655308 C117.246418,160.655308 132.962512,145.686718 146.260745,146.399508 M1.18911175,146.399508 C15.6962751,146.399508 15.6962751,160.655308 30.2034384,160.655308 C44.7106017,160.655308 60.4266953,145.686718 73.7249284,146.399508" id="Path-413"></path>
                            <path d="M363.868195,160.67998 C378.375358,160.67998 378.375358,174.93578 392.882521,174.93578 C407.389685,174.93578 423.105778,159.96719 436.404011,160.67998 M436.404011,160.67998 C450.911175,160.67998 450.911175,174.93578 465.418338,174.93578 C479.925501,174.93578 495.641595,159.96719 508.939828,160.67998 M508.939828,160.67998 C523.446991,160.67998 523.446991,174.93578 537.954155,174.93578 C552.461318,174.93578 568.177411,159.96719 581.475645,160.67998 M291.332378,160.67998 C305.839542,160.67998 305.839542,174.93578 320.346705,174.93578 C334.853868,174.93578 350.569962,159.96719 363.868195,160.67998 M218.796562,160.67998 C233.303725,160.67998 233.303725,174.93578 247.810888,174.93578 C262.318052,174.93578 278.034145,159.96719 291.332378,160.67998 M146.260745,160.67998 C160.767908,160.67998 160.767908,174.93578 175.275072,174.93578 C189.782235,174.93578 205.498328,159.96719 218.796562,160.67998 M73.7249284,160.67998 C88.2320917,160.67998 88.2320917,174.93578 102.739255,174.93578 C117.246418,174.93578 132.962512,159.96719 146.260745,160.67998 M1.18911175,160.67998 C15.6962751,160.67998 15.6962751,174.93578 30.2034384,174.93578 C44.7106017,174.93578 60.4266953,159.96719 73.7249284,160.67998" id="Path-414"></path>
                            <path d="M363.868195,174.960452 C378.375358,174.960452 378.375358,189.216252 392.882521,189.216252 C407.389685,189.216252 423.105778,174.247662 436.404011,174.960452 M436.404011,174.960452 C450.911175,174.960452 450.911175,189.216252 465.418338,189.216252 C479.925501,189.216252 495.641595,174.247662 508.939828,174.960452 M508.939828,174.960452 C523.446991,174.960452 523.446991,189.216252 537.954155,189.216252 C552.461318,189.216252 568.177411,174.247662 581.475645,174.960452 M291.332378,174.960452 C305.839542,174.960452 305.839542,189.216252 320.346705,189.216252 C334.853868,189.216252 350.569962,174.247662 363.868195,174.960452 M218.796562,174.960452 C233.303725,174.960452 233.303725,189.216252 247.810888,189.216252 C262.318052,189.216252 278.034145,174.247662 291.332378,174.960452 M146.260745,174.960452 C160.767908,174.960452 160.767908,189.216252 175.275072,189.216252 C189.782235,189.216252 205.498328,174.247662 218.796562,174.960452 M73.7249284,174.960452 C88.2320917,174.960452 88.2320917,189.216252 102.739255,189.216252 C117.246418,189.216252 132.962512,174.247662 146.260745,174.960452 M1.18911175,174.960452 C15.6962751,174.960452 15.6962751,189.216252 30.2034384,189.216252 C44.7106017,189.216252 60.4266953,174.247662 73.7249284,174.960452" id="Path-412"></path>
                            <path d="M363.868195,189.240924 C378.375358,189.240924 378.375358,203.496723 392.882521,203.496723 C407.389685,203.496723 423.105778,188.528134 436.404011,189.240924 M436.404011,189.240924 C450.911175,189.240924 450.911175,203.496723 465.418338,203.496723 C479.925501,203.496723 495.641595,188.528134 508.939828,189.240924 M508.939828,189.240924 C523.446991,189.240924 523.446991,203.496723 537.954155,203.496723 C552.461318,203.496723 568.177411,188.528134 581.475645,189.240924 M291.332378,189.240924 C305.839542,189.240924 305.839542,203.496723 320.346705,203.496723 C334.853868,203.496723 350.569962,188.528134 363.868195,189.240924 M218.796562,189.240924 C233.303725,189.240924 233.303725,203.496723 247.810888,203.496723 C262.318052,203.496723 278.034145,188.528134 291.332378,189.240924 M146.260745,189.240924 C160.767908,189.240924 160.767908,203.496723 175.275072,203.496723 C189.782235,203.496723 205.498328,188.528134 218.796562,189.240924 M73.7249284,189.240924 C88.2320917,189.240924 88.2320917,203.496723 102.739255,203.496723 C117.246418,203.496723 132.962512,188.528134 146.260745,189.240924 M1.18911175,189.240924 C15.6962751,189.240924 15.6962751,203.496723 30.2034384,203.496723 C44.7106017,203.496723 60.4266953,188.528134 73.7249284,189.240924" id="Path-413"></path>
                            <path d="M363.868195,204.711435 C378.375358,204.711435 378.375358,218.967235 392.882521,218.967235 C407.389685,218.967235 423.105778,203.998645 436.404011,204.711435 M436.404011,204.711435 C450.911175,204.711435 450.911175,218.967235 465.418338,218.967235 C479.925501,218.967235 495.641595,203.998645 508.939828,204.711435 M508.939828,204.711435 C523.446991,204.711435 523.446991,218.967235 537.954155,218.967235 C552.461318,218.967235 568.177411,203.998645 581.475645,204.711435 M291.332378,204.711435 C305.839542,204.711435 305.839542,218.967235 320.346705,218.967235 C334.853868,218.967235 350.569962,203.998645 363.868195,204.711435 M218.796562,204.711435 C233.303725,204.711435 233.303725,218.967235 247.810888,218.967235 C262.318052,218.967235 278.034145,203.998645 291.332378,204.711435 M146.260745,204.711435 C160.767908,204.711435 160.767908,218.967235 175.275072,218.967235 C189.782235,218.967235 205.498328,203.998645 218.796562,204.711435 M73.7249284,204.711435 C88.2320917,204.711435 88.2320917,218.967235 102.739255,218.967235 C117.246418,218.967235 132.962512,203.998645 146.260745,204.711435 M1.18911175,204.711435 C15.6962751,204.711435 15.6962751,218.967235 30.2034384,218.967235 C44.7106017,218.967235 60.4266953,203.998645 73.7249284,204.711435" id="Path-414"></path>
                            <path d="M363.868195,218.991907 C378.375358,218.991907 378.375358,233.247706 392.882521,233.247706 C407.389685,233.247706 423.105778,218.279117 436.404011,218.991907 M436.404011,218.991907 C450.911175,218.991907 450.911175,233.247706 465.418338,233.247706 C479.925501,233.247706 495.641595,218.279117 508.939828,218.991907 M508.939828,218.991907 C523.446991,218.991907 523.446991,233.247706 537.954155,233.247706 C552.461318,233.247706 568.177411,218.279117 581.475645,218.991907 M291.332378,218.991907 C305.839542,218.991907 305.839542,233.247706 320.346705,233.247706 C334.853868,233.247706 350.569962,218.279117 363.868195,218.991907 M218.796562,218.991907 C233.303725,218.991907 233.303725,233.247706 247.810888,233.247706 C262.318052,233.247706 278.034145,218.279117 291.332378,218.991907 M146.260745,218.991907 C160.767908,218.991907 160.767908,233.247706 175.275072,233.247706 C189.782235,233.247706 205.498328,218.279117 218.796562,218.991907 M73.7249284,218.991907 C88.2320917,218.991907 88.2320917,233.247706 102.739255,233.247706 C117.246418,233.247706 132.962512,218.279117 146.260745,218.991907 M1.18911175,218.991907 C15.6962751,218.991907 15.6962751,233.247706 30.2034384,233.247706 C44.7106017,233.247706 60.4266953,218.279117 73.7249284,218.991907" id="Path-412"></path>
                            <path d="M363.868195,233.272378 C378.375358,233.272378 378.375358,247.528178 392.882521,247.528178 C407.389685,247.528178 423.105778,232.559588 436.404011,233.272378 M436.404011,233.272378 C450.911175,233.272378 450.911175,247.528178 465.418338,247.528178 C479.925501,247.528178 495.641595,232.559588 508.939828,233.272378 M508.939828,233.272378 C523.446991,233.272378 523.446991,247.528178 537.954155,247.528178 C552.461318,247.528178 568.177411,232.559588 581.475645,233.272378 M291.332378,233.272378 C305.839542,233.272378 305.839542,247.528178 320.346705,247.528178 C334.853868,247.528178 350.569962,232.559588 363.868195,233.272378 M218.796562,233.272378 C233.303725,233.272378 233.303725,247.528178 247.810888,247.528178 C262.318052,247.528178 278.034145,232.559588 291.332378,233.272378 M146.260745,233.272378 C160.767908,233.272378 160.767908,247.528178 175.275072,247.528178 C189.782235,247.528178 205.498328,232.559588 218.796562,233.272378 M73.7249284,233.272378 C88.2320917,233.272378 88.2320917,247.528178 102.739255,247.528178 C117.246418,247.528178 132.962512,232.559588 146.260745,233.272378 M1.18911175,233.272378 C15.6962751,233.272378 15.6962751,247.528178 30.2034384,247.528178 C44.7106017,247.528178 60.4266953,232.559588 73.7249284,233.272378" id="Path-413"></path>
                            <path d="M363.868195,247.55285 C378.375358,247.55285 378.375358,261.80865 392.882521,261.80865 C407.389685,261.80865 423.105778,246.84006 436.404011,247.55285 M436.404011,247.55285 C450.911175,247.55285 450.911175,261.80865 465.418338,261.80865 C479.925501,261.80865 495.641595,246.84006 508.939828,247.55285 M508.939828,247.55285 C523.446991,247.55285 523.446991,261.80865 537.954155,261.80865 C552.461318,261.80865 568.177411,246.84006 581.475645,247.55285 M291.332378,247.55285 C305.839542,247.55285 305.839542,261.80865 320.346705,261.80865 C334.853868,261.80865 350.569962,246.84006 363.868195,247.55285 M218.796562,247.55285 C233.303725,247.55285 233.303725,261.80865 247.810888,261.80865 C262.318052,261.80865 278.034145,246.84006 291.332378,247.55285 M146.260745,247.55285 C160.767908,247.55285 160.767908,261.80865 175.275072,261.80865 C189.782235,261.80865 205.498328,246.84006 218.796562,247.55285 M73.7249284,247.55285 C88.2320917,247.55285 88.2320917,261.80865 102.739255,261.80865 C117.246418,261.80865 132.962512,246.84006 146.260745,247.55285 M1.18911175,247.55285 C15.6962751,247.55285 15.6962751,261.80865 30.2034384,261.80865 C44.7106017,261.80865 60.4266953,246.84006 73.7249284,247.55285" id="Path-414"></path>
                            <path d="M363.868195,261.833322 C378.375358,261.833322 378.375358,276.089122 392.882521,276.089122 C407.389685,276.089122 423.105778,261.120532 436.404011,261.833322 M436.404011,261.833322 C450.911175,261.833322 450.911175,276.089122 465.418338,276.089122 C479.925501,276.089122 495.641595,261.120532 508.939828,261.833322 M508.939828,261.833322 C523.446991,261.833322 523.446991,276.089122 537.954155,276.089122 C552.461318,276.089122 568.177411,261.120532 581.475645,261.833322 M291.332378,261.833322 C305.839542,261.833322 305.839542,276.089122 320.346705,276.089122 C334.853868,276.089122 350.569962,261.120532 363.868195,261.833322 M218.796562,261.833322 C233.303725,261.833322 233.303725,276.089122 247.810888,276.089122 C262.318052,276.089122 278.034145,261.120532 291.332378,261.833322 M146.260745,261.833322 C160.767908,261.833322 160.767908,276.089122 175.275072,276.089122 C189.782235,276.089122 205.498328,261.120532 218.796562,261.833322 M73.7249284,261.833322 C88.2320917,261.833322 88.2320917,276.089122 102.739255,276.089122 C117.246418,276.089122 132.962512,261.120532 146.260745,261.833322 M1.18911175,261.833322 C15.6962751,261.833322 15.6962751,276.089122 30.2034384,276.089122 C44.7106017,276.089122 60.4266953,261.120532 73.7249284,261.833322" id="Path-412"></path>
                            <path d="M363.868195,277.303833 C378.375358,277.303833 378.375358,291.559633 392.882521,291.559633 C407.389685,291.559633 423.105778,276.591043 436.404011,277.303833 M436.404011,277.303833 C450.911175,277.303833 450.911175,291.559633 465.418338,291.559633 C479.925501,291.559633 495.641595,276.591043 508.939828,277.303833 M508.939828,277.303833 C523.446991,277.303833 523.446991,291.559633 537.954155,291.559633 C552.461318,291.559633 568.177411,276.591043 581.475645,277.303833 M291.332378,277.303833 C305.839542,277.303833 305.839542,291.559633 320.346705,291.559633 C334.853868,291.559633 350.569962,276.591043 363.868195,277.303833 M218.796562,277.303833 C233.303725,277.303833 233.303725,291.559633 247.810888,291.559633 C262.318052,291.559633 278.034145,276.591043 291.332378,277.303833 M146.260745,277.303833 C160.767908,277.303833 160.767908,291.559633 175.275072,291.559633 C189.782235,291.559633 205.498328,276.591043 218.796562,277.303833 M73.7249284,277.303833 C88.2320917,277.303833 88.2320917,291.559633 102.739255,291.559633 C117.246418,291.559633 132.962512,276.591043 146.260745,277.303833 M1.18911175,277.303833 C15.6962751,277.303833 15.6962751,291.559633 30.2034384,291.559633 C44.7106017,291.559633 60.4266953,276.591043 73.7249284,277.303833" id="Path-413"></path>
                            <path d="M363.868195,291.584305 C378.375358,291.584305 378.375358,305.840105 392.882521,305.840105 C407.389685,305.840105 423.105778,290.871515 436.404011,291.584305 M436.404011,291.584305 C450.911175,291.584305 450.911175,305.840105 465.418338,305.840105 C479.925501,305.840105 495.641595,290.871515 508.939828,291.584305 M291.332378,291.584305 C305.839542,291.584305 305.839542,305.840105 320.346705,305.840105 C334.853868,305.840105 350.569962,290.871515 363.868195,291.584305 M218.796562,291.584305 C233.303725,291.584305 233.303725,305.840105 247.810888,305.840105 C262.318052,305.840105 278.034145,290.871515 291.332378,291.584305 M146.260745,291.584305 C160.767908,291.584305 160.767908,305.840105 175.275072,305.840105 C189.782235,305.840105 205.498328,290.871515 218.796562,291.584305 M73.7249284,291.584305 C88.2320917,291.584305 88.2320917,305.840105 102.739255,305.840105 C117.246418,305.840105 132.962512,290.871515 146.260745,291.584305 M1.18911175,291.584305 C15.6962751,291.584305 15.6962751,305.840105 30.2034384,305.840105 C44.7106017,305.840105 60.4266953,290.871515 73.7249284,291.584305" id="Path-414"></path>
                            <path d="M363.868195,305.864777 C378.375358,305.864777 378.375358,320.120577 392.882521,320.120577 C407.389685,320.120577 423.105778,305.151987 436.404011,305.864777 M436.404011,305.864777 C450.911175,305.864777 450.911175,320.120577 465.418338,320.120577 C479.925501,320.120577 495.641595,305.151987 508.939828,305.864777 M291.332378,305.864777 C305.839542,305.864777 305.839542,320.120577 320.346705,320.120577 C334.853868,320.120577 350.569962,305.151987 363.868195,305.864777 M218.796562,305.864777 C233.303725,305.864777 233.303725,320.120577 247.810888,320.120577 C262.318052,320.120577 278.034145,305.151987 291.332378,305.864777 M146.260745,305.864777 C160.767908,305.864777 160.767908,320.120577 175.275072,320.120577 C189.782235,320.120577 205.498328,305.151987 218.796562,305.864777 M73.7249284,305.864777 C88.2320917,305.864777 88.2320917,320.120577 102.739255,320.120577 C117.246418,320.120577 132.962512,305.151987 146.260745,305.864777 M1.18911175,305.864777 C15.6962751,305.864777 15.6962751,320.120577 30.2034384,320.120577 C44.7106017,320.120577 60.4266953,305.151987 73.7249284,305.864777" id="Path-412"></path>
                            <path d="M363.868195,320.145249 C378.375358,320.145249 378.375358,334.401048 392.882521,334.401048 C407.389685,334.401048 423.105778,319.432459 436.404011,320.145249 M436.404011,320.145249 C450.911175,320.145249 450.911175,334.401048 465.418338,334.401048 C479.925501,334.401048 495.641595,319.432459 508.939828,320.145249 M291.332378,320.145249 C305.839542,320.145249 305.839542,334.401048 320.346705,334.401048 C334.853868,334.401048 350.569962,319.432459 363.868195,320.145249 M218.796562,320.145249 C233.303725,320.145249 233.303725,334.401048 247.810888,334.401048 C262.318052,334.401048 278.034145,319.432459 291.332378,320.145249 M146.260745,320.145249 C160.767908,320.145249 160.767908,334.401048 175.275072,334.401048 C189.782235,334.401048 205.498328,319.432459 218.796562,320.145249 M73.7249284,320.145249 C88.2320917,320.145249 88.2320917,334.401048 102.739255,334.401048 C117.246418,334.401048 132.962512,319.432459 146.260745,320.145249 M1.18911175,320.145249 C15.6962751,320.145249 15.6962751,334.401048 30.2034384,334.401048 C44.7106017,334.401048 60.4266953,319.432459 73.7249284,320.145249" id="Path-413"></path>
                            <path d="M363.868195,334.425721 C378.375358,334.425721 378.375358,348.68152 392.882521,348.68152 C407.389685,348.68152 423.105778,333.712931 436.404011,334.425721 M436.404011,334.425721 C450.911175,334.425721 450.911175,348.68152 465.418338,348.68152 C479.925501,348.68152 495.641595,333.712931 508.939828,334.425721 M291.332378,334.425721 C305.839542,334.425721 305.839542,348.68152 320.346705,348.68152 C334.853868,348.68152 350.569962,333.712931 363.868195,334.425721 M218.796562,334.425721 C233.303725,334.425721 233.303725,348.68152 247.810888,348.68152 C262.318052,348.68152 278.034145,333.712931 291.332378,334.425721 M146.260745,334.425721 C160.767908,334.425721 160.767908,348.68152 175.275072,348.68152 C189.782235,348.68152 205.498328,333.712931 218.796562,334.425721 M73.7249284,334.425721 C88.2320917,334.425721 88.2320917,348.68152 102.739255,348.68152 C117.246418,348.68152 132.962512,333.712931 146.260745,334.425721 M1.18911175,334.425721 C15.6962751,334.425721 15.6962751,348.68152 30.2034384,348.68152 C44.7106017,348.68152 60.4266953,333.712931 73.7249284,334.425721" id="Path-414"></path>
                            <path d="M363.868195,349.896232 C378.375358,349.896232 378.375358,364.152031 392.882521,364.152031 C407.389685,364.152031 423.105778,349.183442 436.404011,349.896232 M436.404011,349.896232 C450.911175,349.896232 450.911175,364.152031 465.418338,364.152031 C479.925501,364.152031 495.641595,349.183442 508.939828,349.896232 M291.332378,349.896232 C305.839542,349.896232 305.839542,364.152031 320.346705,364.152031 C334.853868,364.152031 350.569962,349.183442 363.868195,349.896232 M218.796562,349.896232 C233.303725,349.896232 233.303725,364.152031 247.810888,364.152031 C262.318052,364.152031 278.034145,349.183442 291.332378,349.896232 M146.260745,349.896232 C160.767908,349.896232 160.767908,364.152031 175.275072,364.152031 C189.782235,364.152031 205.498328,349.183442 218.796562,349.896232 M73.7249284,349.896232 C88.2320917,349.896232 88.2320917,364.152031 102.739255,364.152031 C117.246418,364.152031 132.962512,349.183442 146.260745,349.896232 M1.18911175,349.896232 C15.6962751,349.896232 15.6962751,364.152031 30.2034384,364.152031 C44.7106017,364.152031 60.4266953,349.183442 73.7249284,349.896232" id="Path-412"></path>
                            <path d="M363.868195,364.176703 C378.375358,364.176703 378.375358,378.432503 392.882521,378.432503 C407.389685,378.432503 423.105778,363.463913 436.404011,364.176703 M436.404011,364.176703 C450.911175,364.176703 450.911175,378.432503 465.418338,378.432503 C479.925501,378.432503 495.641595,363.463913 508.939828,364.176703 M291.332378,364.176703 C305.839542,364.176703 305.839542,378.432503 320.346705,378.432503 C334.853868,378.432503 350.569962,363.463913 363.868195,364.176703 M218.796562,364.176703 C233.303725,364.176703 233.303725,378.432503 247.810888,378.432503 C262.318052,378.432503 278.034145,363.463913 291.332378,364.176703 M146.260745,364.176703 C160.767908,364.176703 160.767908,378.432503 175.275072,378.432503 C189.782235,378.432503 205.498328,363.463913 218.796562,364.176703 M73.7249284,364.176703 C88.2320917,364.176703 88.2320917,378.432503 102.739255,378.432503 C117.246418,378.432503 132.962512,363.463913 146.260745,364.176703" id="Path-413"></path>
                            <path d="M363.868195,378.457175 C378.375358,378.457175 378.375358,392.712975 392.882521,392.712975 C407.389685,392.712975 423.105778,377.744385 436.404011,378.457175 M436.404011,378.457175 C450.911175,378.457175 450.911175,392.712975 465.418338,392.712975 C479.925501,392.712975 495.641595,377.744385 508.939828,378.457175 M291.332378,378.457175 C305.839542,378.457175 305.839542,392.712975 320.346705,392.712975 C334.853868,392.712975 350.569962,377.744385 363.868195,378.457175 M218.796562,378.457175 C233.303725,378.457175 233.303725,392.712975 247.810888,392.712975 C262.318052,392.712975 278.034145,377.744385 291.332378,378.457175 M146.260745,378.457175 C160.767908,378.457175 160.767908,392.712975 175.275072,392.712975 C189.782235,392.712975 205.498328,377.744385 218.796562,378.457175 M73.7249284,378.457175 C88.2320917,378.457175 88.2320917,392.712975 102.739255,392.712975 C117.246418,392.712975 132.962512,377.744385 146.260745,378.457175" id="Path-414"></path>
                            <path d="M363.868195,407.018119 C378.375358,407.018119 378.375358,421.273919 392.882521,421.273919 C407.389685,421.273919 423.105778,406.305329 436.404011,407.018119 M291.332378,407.018119 C305.839542,407.018119 305.839542,421.273919 320.346705,421.273919 C334.853868,421.273919 350.569962,406.305329 363.868195,407.018119 M218.796562,407.018119 C233.303725,407.018119 233.303725,421.273919 247.810888,421.273919 C262.318052,421.273919 278.034145,406.305329 291.332378,407.018119 M146.260745,407.018119 C160.767908,407.018119 160.767908,421.273919 175.275072,421.273919 C189.782235,421.273919 205.498328,406.305329 218.796562,407.018119 M73.7249284,407.018119 C88.2320917,407.018119 88.2320917,421.273919 102.739255,421.273919 C117.246418,421.273919 132.962512,406.305329 146.260745,407.018119" id="Path-413"></path>
                            <path d="M363.868195,422.48863 C378.375358,422.48863 378.375358,436.74443 392.882521,436.74443 C407.389685,436.74443 423.105778,421.77584 436.404011,422.48863 M291.332378,422.48863 C305.839542,422.48863 305.839542,436.74443 320.346705,436.74443 C334.853868,436.74443 350.569962,421.77584 363.868195,422.48863 M218.796562,422.48863 C233.303725,422.48863 233.303725,436.74443 247.810888,436.74443 C262.318052,436.74443 278.034145,421.77584 291.332378,422.48863 M146.260745,422.48863 C160.767908,422.48863 160.767908,436.74443 175.275072,436.74443 C189.782235,436.74443 205.498328,421.77584 218.796562,422.48863 M73.7249284,422.48863 C88.2320917,422.48863 88.2320917,436.74443 102.739255,436.74443 C117.246418,436.74443 132.962512,421.77584 146.260745,422.48863" id="Path-414"></path>
                            <path d="M363.868195,392.737647 C378.375358,392.737647 378.375358,406.993447 392.882521,406.993447 C407.389685,406.993447 423.105778,392.024857 436.404011,392.737647 M291.332378,392.737647 C305.839542,392.737647 305.839542,406.993447 320.346705,406.993447 C334.853868,406.993447 350.569962,392.024857 363.868195,392.737647 M218.796562,392.737647 C233.303725,392.737647 233.303725,406.993447 247.810888,406.993447 C262.318052,406.993447 278.034145,392.024857 291.332378,392.737647 M146.260745,392.737647 C160.767908,392.737647 160.767908,406.993447 175.275072,406.993447 C189.782235,406.993447 205.498328,392.024857 218.796562,392.737647 M73.7249284,392.737647 C88.2320917,392.737647 88.2320917,406.993447 102.739255,406.993447 C117.246418,406.993447 132.962512,392.024857 146.260745,392.737647" id="Path-413"></path>
                            <path d="M363.868195,436.769102 C378.375358,436.769102 378.375358,451.024902 392.882521,451.024902 C407.389685,451.024902 423.105778,436.056312 436.404011,436.769102 M291.332378,436.769102 C305.839542,436.769102 305.839542,451.024902 320.346705,451.024902 C334.853868,451.024902 350.569962,436.056312 363.868195,436.769102 M218.796562,436.769102 C233.303725,436.769102 233.303725,451.024902 247.810888,451.024902 C262.318052,451.024902 278.034145,436.056312 291.332378,436.769102 M146.260745,436.769102 C160.767908,436.769102 160.767908,451.024902 175.275072,451.024902 C189.782235,451.024902 205.498328,436.056312 218.796562,436.769102" id="Path-413"></path>
                            <path d="M291.332378,451.049574 C305.839542,451.049574 305.839542,465.305374 320.346705,465.305374 C334.853868,465.305374 350.569962,450.336784 363.868195,451.049574 M218.796562,451.049574 C233.303725,451.049574 233.303725,465.305374 247.810888,465.305374 C262.318052,465.305374 278.034145,450.336784 291.332378,451.049574 M146.260745,451.049574 C160.767908,451.049574 160.767908,465.305374 175.275072,465.305374 C189.782235,465.305374 205.498328,450.336784 218.796562,451.049574" id="Path-415"></path>
                        </g>
                        <path d="M830,908 L830,0 L0,0 L0,908 L830,908 L830,908 Z M415,224.917431 C288.90817,224.917431 186.690544,327.214792 186.690544,453.40498 C186.690544,579.595169 288.90817,681.892529 415,681.892529 C541.09183,681.892529 643.309456,579.595169 643.309456,453.40498 C643.309456,327.214792 541.09183,224.917431 415,224.917431 L415,224.917431 L415,224.917431 Z" id="Rectangle-1" fill="#FFFFFF"></path>
                    </g>
                </g>
            </g>
        </g>
    </g>
</svg>